# xmcd
#
# Track frame offsets: 
#        150
#        19487
#        34930
#        51243
#        70814
#        107025
#        125668
#        144121
#        162271
#        178806
#        198301
#        225267
#        241063
#
# Disc length: 3624 seconds
#
# Revision: 0
# Processed by: cddbd v1.5.2PL0 Copyright (c) Steve Scherf et al.
# Submitted via: ExactAudioCopy v1.0b1
#
DISCID=ae0e260d
DTITLE=Sharon Lewis and Texas Fire - The Real Deal
DYEAR=2011
DGENRE=Blues
TTITLE0=What's Really Going On?
TTITLE1=The Real Deal
TTITLE2=Do Something For Me
TTITLE3=Crazy Love
TTITLE4=Mother Blues
TTITLE5=Blues Train
TTITLE6=Please Mr. Jailer
TTITLE7=Mojo Kings
TTITLE8=Silver Fox
TTITLE9=You Can't Take My Life
TTITLE10=Ain't No Sunshine
TTITLE11=Don't Play That Song
TTITLE12=Angel
EXTD=
EXTT0=
EXTT1=
EXTT2=
EXTT3=
EXTT4=
EXTT5=
EXTT6=
EXTT7=
EXTT8=
EXTT9=
EXTT10=
EXTT11=
EXTT12=
PLAYORDER=
